<svg xmlns="http://www.w3.org/2000/svg" viewBox="0 0 378 104" xml:space="preserve" style="fill-rule:evenodd;clip-rule:evenodd;stroke-linejoin:round;stroke-miterlimit:2"><path style="fill:none" d="M0 0h800v600H0z" transform="scale(.47127 .17287)"/><path shape-rendering="geometricPrecision" d="M43.831 6.655a32.372 32.372 0 0 1 3.837 1.028l1.917-5.713A37.815 37.815 0 0 0 45.027.749z" style="fill:url(#a);fill-rule:nonzero" transform="matrix(1 0 0 1 6.926 6.618)"/><path shape-rendering="geometricPrecision" d="M33.968 6.234a31.32 31.32 0 0 1 3.956-.206l.068-6.026a37.34 37.34 0 0 0-4.718.247z" style="fill:url(#b);fill-rule:nonzero" transform="matrix(1 0 0 1 6.926 6.618)"/><path shape-rendering="geometricPrecision" d="M53.097 10.093a31.404 31.404 0 0 1 3.323 2.157l3.594-4.836a37.403 37.403 0 0 0-3.963-2.573z" style="fill:url(#c);fill-rule:nonzero" transform="matrix(1 0 0 1 6.926 6.618)"/><path shape-rendering="geometricPrecision" d="M24.459 8.897a31.713 31.713 0 0 1 3.701-1.423l-1.808-5.749a37.618 37.618 0 0 0-4.404 1.695z" style="fill:url(#d);fill-rule:nonzero" transform="matrix(1 0 0 1 6.926 6.618)"/><path shape-rendering="geometricPrecision" d="M60.83 16.228a31.57 31.57 0 0 1 2.493 3.083l4.914-3.488a37.74 37.74 0 0 0-2.967-3.67z" style="fill:url(#e);fill-rule:nonzero" transform="matrix(1 0 0 1 6.926 6.618)"/><path shape-rendering="geometricPrecision" d="M16.228 14.363a31.57 31.57 0 0 1 3.083-2.493l-3.488-4.914a37.74 37.74 0 0 0-3.67 2.967z" style="fill:url(#f);fill-rule:nonzero" transform="matrix(1 0 0 1 6.926 6.618)"/><path shape-rendering="geometricPrecision" d="M66.295 24.459a31.541 31.541 0 0 1 1.424 3.701l5.749-1.808a37.797 37.797 0 0 0-1.695-4.404z" style="fill:url(#g);fill-rule:nonzero" transform="matrix(1 0 0 1 6.926 6.618)"/><path shape-rendering="geometricPrecision" d="M10.093 22.096a31.404 31.404 0 0 1 2.157-3.323l-4.836-3.594a37.301 37.301 0 0 0-2.573 3.963z" style="fill:url(#h);fill-rule:nonzero" transform="matrix(1 0 0 1 6.926 6.618)"/><path shape-rendering="geometricPrecision" d="M68.958 33.968c.152 1.304.222 2.625.207 3.956l6.025.068a37.154 37.154 0 0 0-.246-4.718z" style="fill:url(#i);fill-rule:nonzero" transform="matrix(1 0 0 1 6.926 6.618)"/><path shape-rendering="geometricPrecision" d="M7.11 29.427c.173-.644.364-1.279.573-1.902L1.97 25.608a38.622 38.622 0 0 0-1.221 4.558l5.906 1.196c.131-.644.282-1.29.455-1.935z" style="fill:url(#j);fill-rule:nonzero" transform="matrix(1 0 0 1 6.926 6.618)"/><path shape-rendering="geometricPrecision" d="M68.538 43.831a32.372 32.372 0 0 1-.455 1.934l5.82 1.56a38.59 38.59 0 0 0 .541-2.298z" style="fill:url(#k);fill-rule:nonzero" transform="matrix(1 0 0 1 6.926 6.618)"/><path shape-rendering="geometricPrecision" d="M6.234 41.225a31.326 31.326 0 0 1-.206-3.957l-6.026-.067a37.34 37.34 0 0 0 .247 4.718z" style="fill:url(#l);fill-rule:nonzero" transform="matrix(1 0 0 1 6.926 6.618)"/><path shape-rendering="geometricPrecision" d="M8.897 50.734a31.713 31.713 0 0 1-1.423-3.701L1.725 48.84a37.565 37.565 0 0 0 1.695 4.405z" style="fill:url(#m);fill-rule:nonzero" transform="matrix(1 0 0 1 6.926 6.618)"/><path shape-rendering="geometricPrecision" d="M14.363 58.965a31.57 31.57 0 0 1-2.493-3.083L6.956 59.37a37.86 37.86 0 0 0 2.967 3.67z" style="fill:url(#n);fill-rule:nonzero" transform="matrix(1 0 0 1 6.926 6.618)"/><path shape-rendering="geometricPrecision" d="M22.096 65.1a31.255 31.255 0 0 1-3.323-2.158l-3.594 4.837a37.301 37.301 0 0 0 3.963 2.573z" style="fill:url(#o);fill-rule:nonzero" transform="matrix(1 0 0 1 6.926 6.618)"/><path shape-rendering="geometricPrecision" d="M29.427 68.083a32.462 32.462 0 0 1-1.902-.573l-1.917 5.712c.741.249 1.495.476 2.26.681z" style="fill:url(#p);fill-rule:nonzero" transform="matrix(1 0 0 1 6.926 6.618)"/><path shape-rendering="geometricPrecision" d="M57.154 48.845c-.821 0-1.633.042-2.433.124l.306 2.997a21.02 21.02 0 0 1 4.255 0l.306-2.997c-.8-.082-1.612-.124-2.434-.124z" style="fill:url(#q);fill-rule:nonzero" transform="matrix(1 0 0 1 6.926 6.618)"/><path shape-rendering="geometricPrecision" d="M67.963 51.463a23.12 23.12 0 0 0-4.54-1.777l-.798 2.905c1.385.38 2.708.901 3.95 1.546z" style="fill:url(#r);fill-rule:nonzero" transform="matrix(1 0 0 1 6.926 6.618)"/><path shape-rendering="geometricPrecision" d="M50.886 49.686a23.096 23.096 0 0 0-4.54 1.777l1.388 2.674a20.121 20.121 0 0 1 3.95-1.546z" style="fill:url(#s);fill-rule:nonzero" transform="matrix(1 0 0 1 6.926 6.618)"/><path shape-rendering="geometricPrecision" d="M74.817 56.903a22.617 22.617 0 0 0-3.552-3.353l-1.821 2.4a19.638 19.638 0 0 1 3.079 2.906z" style="fill:url(#t);fill-rule:nonzero" transform="matrix(1 0 0 1 6.926 6.618)"/><path shape-rendering="geometricPrecision" d="M43.044 53.55a22.573 22.573 0 0 0-3.552 3.353l2.294 1.953a19.676 19.676 0 0 1 3.078-2.906z" style="fill:url(#u);fill-rule:nonzero" transform="matrix(1 0 0 1 6.926 6.618)"/><path shape-rendering="geometricPrecision" d="M79.054 64.585a21.525 21.525 0 0 0-1.971-4.487l-2.604 1.517a18.448 18.448 0 0 1 1.696 3.859z" style="fill:url(#v);fill-rule:nonzero" transform="matrix(1 0 0 1 6.926 6.618)"/><path shape-rendering="geometricPrecision" d="M37.226 60.098a21.525 21.525 0 0 0-1.971 4.487l2.879.889a18.496 18.496 0 0 1 1.695-3.859z" style="fill:url(#w);fill-rule:nonzero" transform="matrix(1 0 0 1 6.926 6.618)"/><path shape-rendering="geometricPrecision" d="M80 70.881c0-.828-.047-1.646-.14-2.452l-2.993.344a18.561 18.561 0 0 1 0 4.216l2.993.343c.093-.805.14-1.623.14-2.451z" style="fill:url(#x);fill-rule:nonzero" transform="matrix(1 0 0 1 6.926 6.618)"/><path shape-rendering="geometricPrecision" d="M34.449 68.429a21.383 21.383 0 0 0 0 4.903l2.993-.343a18.574 18.574 0 0 1 0-4.216z" style="fill:url(#y);fill-rule:nonzero" transform="matrix(1 0 0 1 6.926 6.618)"/><path shape-rendering="geometricPrecision" d="M77.083 81.663a21.525 21.525 0 0 0 1.971-4.487l-2.879-.888a18.44 18.44 0 0 1-1.696 3.858z" style="fill:url(#z);fill-rule:nonzero" transform="matrix(1 0 0 1 6.926 6.618)"/><path shape-rendering="geometricPrecision" d="M35.255 77.176a21.525 21.525 0 0 0 1.971 4.487l2.603-1.517a18.488 18.488 0 0 1-1.695-3.858z" style="fill:url(#A);fill-rule:nonzero" transform="matrix(1 0 0 1 6.926 6.618)"/><path shape-rendering="geometricPrecision" d="M71.265 88.212a22.623 22.623 0 0 0 3.552-3.354l-2.294-1.953a19.546 19.546 0 0 1-3.079 2.906z" style="fill:url(#B);fill-rule:nonzero" transform="matrix(1 0 0 1 6.926 6.618)"/><path shape-rendering="geometricPrecision" d="M39.492 84.859a22.62 22.62 0 0 0 3.552 3.353l1.82-2.401a19.583 19.583 0 0 1-3.078-2.906z" style="fill:url(#C);fill-rule:nonzero" transform="matrix(1 0 0 1 6.926 6.618)"/><path shape-rendering="geometricPrecision" d="M46.346 90.299a23.221 23.221 0 0 0 4.54 1.777l.798-2.905a20.187 20.187 0 0 1-3.95-1.547z" style="fill:url(#D);fill-rule:nonzero" transform="matrix(1 0 0 1 6.926 6.618)"/><path shape-rendering="geometricPrecision" d="M63.423 92.076a23.246 23.246 0 0 0 4.54-1.777l-1.388-2.675a20.187 20.187 0 0 1-3.95 1.547z" style="fill:url(#E);fill-rule:nonzero" transform="matrix(1 0 0 1 6.926 6.618)"/><path shape-rendering="geometricPrecision" d="M54.721 92.792a23.86 23.86 0 0 0 4.867 0l-.306-2.997a21.04 21.04 0 0 1-4.255 0z" style="fill:url(#F);fill-rule:nonzero" transform="matrix(1 0 0 1 6.926 6.618)"/><path shape-rendering="geometricPrecision" d="M124.888 69.768c-2.816 0-5.397-.491-7.744-1.472a17.195 17.195 0 0 1-5.952-4.352c-1.664-1.877-2.965-4.16-3.904-6.848-.896-2.688-1.344-5.739-1.344-9.152 0-3.413.448-6.443 1.344-9.088.939-2.688 2.24-4.928 3.904-6.72a16.17 16.17 0 0 1 5.952-4.16c2.347-.981 4.928-1.472 7.744-1.472s5.376.491 7.68 1.472c2.347.939 4.352 2.325 6.016 4.16 1.664 1.835 2.944 4.096 3.84 6.784.939 2.645 1.408 5.653 1.408 9.024 0 3.413-.469 6.464-1.408 9.152-.896 2.688-2.176 4.971-3.84 6.848a17.042 17.042 0 0 1-6.016 4.352c-2.304.981-4.864 1.472-7.68 1.472zm0-8.128c2.859 0 5.12-1.216 6.784-3.648 1.664-2.475 2.496-5.824 2.496-10.048 0-4.181-.832-7.445-2.496-9.792-1.664-2.347-3.925-3.52-6.784-3.52s-5.12 1.173-6.784 3.52c-1.664 2.347-2.496 5.611-2.496 9.792 0 4.224.832 7.573 2.496 10.048 1.664 2.432 3.925 3.648 6.784 3.648zm26.79 7.36V27.272h10.304l6.72 18.56a80.77 80.77 0 0 1 1.216 3.84c.384 1.28.789 2.56 1.216 3.84h.256c.427-1.28.811-2.56 1.152-3.84a80.77 80.77 0 0 1 1.216-3.84l6.592-18.56h10.24V69h-8.576V53.704c0-1.024.043-2.155.128-3.392s.192-2.475.32-3.712c.128-1.28.256-2.517.384-3.712.128-1.237.256-2.368.384-3.392h-.256l-3.392 9.92-5.952 15.936h-5.184l-5.952-15.936-3.328-9.92h-.256c.128 1.024.256 2.155.384 3.392.128 1.195.256 2.432.384 3.712.128 1.237.235 2.475.32 3.712a49.84 49.84 0 0 1 .128 3.392V69zm48.75 0V27.272h9.408V69zm30.322 14.976c-3.925 0-6.997-.789-9.216-2.368-2.219-1.579-3.328-3.648-3.328-6.208 0-1.365.405-2.709 1.216-4.032.853-1.323 1.984-2.496 3.392-3.52v-.256a5.89 5.89 0 0 1-1.92-1.92c-.512-.811-.768-1.792-.768-2.944 0-1.408.384-2.581 1.152-3.52.811-.939 1.536-1.643 2.176-2.112v-.256c-.981-.853-1.877-2.005-2.688-3.456-.768-1.451-1.152-3.115-1.152-4.992 0-1.536.256-2.944.768-4.224.555-1.323 1.301-2.453 2.24-3.392a11.104 11.104 0 0 1 3.328-2.304c1.28-.555 2.667-.832 4.16-.832.853 0 1.6.085 2.24.256.683.128 1.259.299 1.728.512h10.24V40.2h-7.424c1.109.896 2.005 2.048 2.688 3.456.683 1.408 1.024 2.987 1.024 4.736 0 1.536-.277 2.965-.832 4.288a9.864 9.864 0 0 1-2.24 3.456 10.134 10.134 0 0 1-3.328 2.304c-1.28.555-2.645.832-4.096.832-.896 0-1.813-.107-2.752-.32a8.846 8.846 0 0 1-2.496-1.088 12.071 12.071 0 0 0-1.92 1.984c-.512.725-.768 1.643-.768 2.752 0 .597.085 1.152.256 1.664.213.512.533.96.96 1.344.469.384 1.088.683 1.856.896.768.213 1.749.32 2.944.32h6.784c3.413 0 5.909.555 7.488 1.664 1.579 1.109 2.368 2.859 2.368 5.248 0 1.28-.341 2.539-1.024 3.776-.64 1.237-1.579 2.325-2.816 3.264-1.195.981-2.667 1.749-4.416 2.304-1.749.597-3.691.896-5.824.896zm-.64-26.496a8.235 8.235 0 0 0 3.2-.64 9.157 9.157 0 0 0 2.688-1.856 9.554 9.554 0 0 0 1.856-2.88c.469-1.109.704-2.347.704-3.712 0-1.365-.235-2.603-.704-3.712-.427-1.109-1.024-2.048-1.792-2.816a8.251 8.251 0 0 0-2.688-1.792 8.395 8.395 0 0 0-3.264-.64c-1.152 0-2.24.213-3.264.64a8.251 8.251 0 0 0-2.688 1.792c-.768.768-1.387 1.707-1.856 2.816-.427 1.109-.64 2.347-.64 3.712 0 1.365.235 2.603.704 3.712a9.554 9.554 0 0 0 1.856 2.88 9.157 9.157 0 0 0 2.688 1.856 8.235 8.235 0 0 0 3.2.64zm.768 24.704c1.835 0 3.477-.256 4.928-.768 1.493-.469 2.752-1.088 3.776-1.856s1.813-1.664 2.368-2.688c.555-.981.832-1.984.832-3.008 0-1.792-.64-3.072-1.92-3.84-1.237-.768-3.072-1.152-5.504-1.152h-7.04c-.213 0-.683-.021-1.408-.064a19.648 19.648 0 0 1-2.304-.448c-1.536 1.024-2.645 2.133-3.328 3.328-.683 1.237-1.024 2.432-1.024 3.584 0 2.048.917 3.712 2.752 4.992 1.835 1.28 4.459 1.92 7.872 1.92zM251.644 69V38.408h1.664l.256 5.76h.128c1.024-1.877 2.261-3.435 3.712-4.672 1.451-1.237 3.115-1.856 4.992-1.856.512 0 1.003.043 1.472.128.469.085.96.256 1.472.512l-.512 1.792c-.512-.213-.939-.341-1.28-.384-.341-.085-.811-.128-1.408-.128-1.408 0-2.88.619-4.416 1.856-1.536 1.195-2.923 3.307-4.16 6.336V69zm29.818.768c-1.835 0-3.584-.363-5.248-1.088-1.622-.725-3.051-1.771-4.288-3.136-1.238-1.365-2.219-3.029-2.944-4.992-.726-2.005-1.088-4.267-1.088-6.784 0-2.56.362-4.843 1.088-6.848.725-2.005 1.706-3.691 2.944-5.056 1.237-1.365 2.666-2.411 4.288-3.136a12.999 12.999 0 0 1 5.248-1.088c1.834 0 3.562.363 5.184 1.088a12.628 12.628 0 0 1 4.352 3.136c1.237 1.365 2.218 3.051 2.944 5.056.725 2.005 1.088 4.288 1.088 6.848 0 2.517-.363 4.779-1.088 6.784-.726 1.963-1.707 3.627-2.944 4.992a12.628 12.628 0 0 1-4.352 3.136 12.56 12.56 0 0 1-5.184 1.088zm0-1.792c1.621 0 3.136-.341 4.544-1.024a10.829 10.829 0 0 0 3.648-2.88c1.024-1.28 1.834-2.773 2.432-4.48.597-1.749.896-3.691.896-5.824 0-2.091-.299-4.011-.896-5.76-.598-1.792-1.408-3.307-2.432-4.544-1.024-1.28-2.24-2.261-3.648-2.944a9.784 9.784 0 0 0-4.544-1.088 9.781 9.781 0 0 0-4.544 1.088c-1.408.683-2.624 1.664-3.648 2.944-1.024 1.237-1.835 2.752-2.432 4.544-.598 1.749-.896 3.669-.896 5.76 0 2.133.298 4.075.896 5.824.597 1.707 1.408 3.2 2.432 4.48a10.829 10.829 0 0 0 3.648 2.88c1.408.683 2.922 1.024 4.544 1.024zm31.886 1.792c-3.157 0-5.483-.939-6.976-2.816-1.493-1.877-2.24-4.821-2.24-8.832V38.408h1.92v19.456c0 3.413.576 5.952 1.728 7.616 1.152 1.664 3.051 2.496 5.696 2.496 1.92 0 3.669-.533 5.248-1.6 1.579-1.067 3.328-2.752 5.248-5.056V38.408h1.92V69h-1.664l-.256-5.248h-.128c-1.536 1.792-3.136 3.243-4.8 4.352-1.664 1.109-3.563 1.664-5.696 1.664zm24.859 13.44v-44.8h1.664l.256 3.968h.128a30.515 30.515 0 0 1 4.992-3.264c1.834-.981 3.712-1.472 5.631-1.472 4.139 0 7.211 1.429 9.217 4.288 2.048 2.816 3.072 6.592 3.072 11.328 0 2.603-.363 4.928-1.088 6.976-.726 2.048-1.707 3.776-2.944 5.184a12.995 12.995 0 0 1-4.352 3.264 12.56 12.56 0 0 1-5.184 1.088c-1.494 0-3.03-.32-4.608-.96-1.579-.683-3.2-1.643-4.864-2.88v17.28zm11.52-15.232c1.664 0 3.178-.363 4.544-1.088a11.206 11.206 0 0 0 3.648-3.008c1.024-1.323 1.813-2.88 2.368-4.672.554-1.835.832-3.819.832-5.952 0-1.963-.192-3.776-.576-5.44-.342-1.707-.939-3.179-1.792-4.416a8.34 8.34 0 0 0-3.2-2.88c-1.323-.725-2.923-1.088-4.8-1.088-1.622 0-3.307.469-5.056 1.408-1.707.896-3.563 2.219-5.568 3.968v18.944c1.877 1.536 3.626 2.624 5.248 3.264 1.664.64 3.114.96 4.352.96z" style="fill-rule:nonzero" transform="matrix(1 0 0 1 6.926 6.618)"/><defs><linearGradient shape-rendering="geometricPrecision" id="q" x1="0" y1="0" x2="1" y2="0" gradientUnits="userSpaceOnUse" gradientTransform="rotate(-129.741 58.993 22.57) scale(97.2508)"><stop offset="0" style="stop-color:#8e2eef;stop-opacity:1"/><stop offset="1" style="stop-color:#ff4acc;stop-opacity:1"/></linearGradient><linearGradient shape-rendering="geometricPrecision" id="a" x1="0" y1="0" x2="1" y2="0" gradientUnits="userSpaceOnUse" gradientTransform="rotate(-129.741 58.993 22.57) scale(97.2508)"><stop offset="0" style="stop-color:#8e2eef;stop-opacity:1"/><stop offset="1" style="stop-color:#ff4acc;stop-opacity:1"/></linearGradient><linearGradient shape-rendering="geometricPrecision" id="c" x1="0" y1="0" x2="1" y2="0" gradientUnits="userSpaceOnUse" gradientTransform="rotate(-129.741 58.993 22.57) scale(97.2508)"><stop offset="0" style="stop-color:#8e2eef;stop-opacity:1"/><stop offset="1" style="stop-color:#ff4acc;stop-opacity:1"/></linearGradient><linearGradient shape-rendering="geometricPrecision" id="d" x1="0" y1="0" x2="1" y2="0" gradientUnits="userSpaceOnUse" gradientTransform="rotate(-129.741 58.993 22.57) scale(97.2508)"><stop offset="0" style="stop-color:#8e2eef;stop-opacity:1"/><stop offset="1" style="stop-color:#ff4acc;stop-opacity:1"/></linearGradient><linearGradient shape-rendering="geometricPrecision" id="e" x1="0" y1="0" x2="1" y2="0" gradientUnits="userSpaceOnUse" gradientTransform="rotate(-129.741 58.993 22.57) scale(97.2508)"><stop offset="0" style="stop-color:#8e2eef;stop-opacity:1"/><stop offset="1" style="stop-color:#ff4acc;stop-opacity:1"/></linearGradient><linearGradient shape-rendering="geometricPrecision" id="f" x1="0" y1="0" x2="1" y2="0" gradientUnits="userSpaceOnUse" gradientTransform="rotate(-129.741 58.993 22.57) scale(97.2508)"><stop offset="0" style="stop-color:#8e2eef;stop-opacity:1"/><stop offset="1" style="stop-color:#ff4acc;stop-opacity:1"/></linearGradient><linearGradient shape-rendering="geometricPrecision" id="g" x1="0" y1="0" x2="1" y2="0" gradientUnits="userSpaceOnUse" gradientTransform="rotate(-129.741 58.993 22.57) scale(97.2508)"><stop offset="0" style="stop-color:#8e2eef;stop-opacity:1"/><stop offset="1" style="stop-color:#ff4acc;stop-opacity:1"/></linearGradient><linearGradient shape-rendering="geometricPrecision" id="h" x1="0" y1="0" x2="1" y2="0" gradientUnits="userSpaceOnUse" gradientTransform="rotate(-129.741 58.993 22.57) scale(97.2508)"><stop offset="0" style="stop-color:#8e2eef;stop-opacity:1"/><stop offset="1" style="stop-color:#ff4acc;stop-opacity:1"/></linearGradient><linearGradient shape-rendering="geometricPrecision" id="i" x1="0" y1="0" x2="1" y2="0" gradientUnits="userSpaceOnUse" gradientTransform="rotate(-129.741 58.993 22.57) scale(97.2508)"><stop offset="0" style="stop-color:#8e2eef;stop-opacity:1"/><stop offset="1" style="stop-color:#ff4acc;stop-opacity:1"/></linearGradient><linearGradient shape-rendering="geometricPrecision" id="j" x1="0" y1="0" x2="1" y2="0" gradientUnits="userSpaceOnUse" gradientTransform="rotate(-129.741 58.993 22.57) scale(97.2508)"><stop offset="0" style="stop-color:#8e2eef;stop-opacity:1"/><stop offset="1" style="stop-color:#ff4acc;stop-opacity:1"/></linearGradient><linearGradient shape-rendering="geometricPrecision" id="k" x1="0" y1="0" x2="1" y2="0" gradientUnits="userSpaceOnUse" gradientTransform="rotate(-129.741 58.993 22.57) scale(97.2508)"><stop offset="0" style="stop-color:#8e2eef;stop-opacity:1"/><stop offset="1" style="stop-color:#ff4acc;stop-opacity:1"/></linearGradient><linearGradient shape-rendering="geometricPrecision" id="l" x1="0" y1="0" x2="1" y2="0" gradientUnits="userSpaceOnUse" gradientTransform="rotate(-129.741 58.993 22.57) scale(97.2508)"><stop offset="0" style="stop-color:#8e2eef;stop-opacity:1"/><stop offset="1" style="stop-color:#ff4acc;stop-opacity:1"/></linearGradient><linearGradient shape-rendering="geometricPrecision" id="m" x1="0" y1="0" x2="1" y2="0" gradientUnits="userSpaceOnUse" gradientTransform="rotate(-129.741 58.993 22.57) scale(97.2508)"><stop offset="0" style="stop-color:#8e2eef;stop-opacity:1"/><stop offset="1" style="stop-color:#ff4acc;stop-opacity:1"/></linearGradient><linearGradient shape-rendering="geometricPrecision" id="n" x1="0" y1="0" x2="1" y2="0" gradientUnits="userSpaceOnUse" gradientTransform="rotate(-129.741 58.993 22.57) scale(97.2508)"><stop offset="0" style="stop-color:#8e2eef;stop-opacity:1"/><stop offset="1" style="stop-color:#ff4acc;stop-opacity:1"/></linearGradient><linearGradient shape-rendering="geometricPrecision" id="o" x1="0" y1="0" x2="1" y2="0" gradientUnits="userSpaceOnUse" gradientTransform="rotate(-129.741 58.993 22.57) scale(97.2508)"><stop offset="0" style="stop-color:#8e2eef;stop-opacity:1"/><stop offset="1" style="stop-color:#ff4acc;stop-opacity:1"/></linearGradient><linearGradient shape-rendering="geometricPrecision" id="p" x1="0" y1="0" x2="1" y2="0" gradientUnits="userSpaceOnUse" gradientTransform="rotate(-129.741 58.993 22.57) scale(97.2508)"><stop offset="0" style="stop-color:#8e2eef;stop-opacity:1"/><stop offset="1" style="stop-color:#ff4acc;stop-opacity:1"/></linearGradient><linearGradient shape-rendering="geometricPrecision" id="b" x1="0" y1="0" x2="1" y2="0" gradientUnits="userSpaceOnUse" gradientTransform="rotate(-129.741 58.993 22.57) scale(97.2508)"><stop offset="0" style="stop-color:#8e2eef;stop-opacity:1"/><stop offset="1" style="stop-color:#ff4acc;stop-opacity:1"/></linearGradient><linearGradient shape-rendering="geometricPrecision" id="r" x1="0" y1="0" x2="1" y2="0" gradientUnits="userSpaceOnUse" gradientTransform="rotate(-129.741 58.993 22.57) scale(97.2508)"><stop offset="0" style="stop-color:#8e2eef;stop-opacity:1"/><stop offset="1" style="stop-color:#ff4acc;stop-opacity:1"/></linearGradient><linearGradient shape-rendering="geometricPrecision" id="s" x1="0" y1="0" x2="1" y2="0" gradientUnits="userSpaceOnUse" gradientTransform="rotate(-129.741 58.993 22.57) scale(97.2508)"><stop offset="0" style="stop-color:#8e2eef;stop-opacity:1"/><stop offset="1" style="stop-color:#ff4acc;stop-opacity:1"/></linearGradient><linearGradient shape-rendering="geometricPrecision" id="t" x1="0" y1="0" x2="1" y2="0" gradientUnits="userSpaceOnUse" gradientTransform="rotate(-129.741 58.993 22.57) scale(97.2508)"><stop offset="0" style="stop-color:#8e2eef;stop-opacity:1"/><stop offset="1" style="stop-color:#ff4acc;stop-opacity:1"/></linearGradient><linearGradient shape-rendering="geometricPrecision" id="u" x1="0" y1="0" x2="1" y2="0" gradientUnits="userSpaceOnUse" gradientTransform="rotate(-129.741 58.993 22.57) scale(97.2508)"><stop offset="0" style="stop-color:#8e2eef;stop-opacity:1"/><stop offset="1" style="stop-color:#ff4acc;stop-opacity:1"/></linearGradient><linearGradient shape-rendering="geometricPrecision" id="v" x1="0" y1="0" x2="1" y2="0" gradientUnits="userSpaceOnUse" gradientTransform="rotate(-129.741 58.993 22.57) scale(97.2508)"><stop offset="0" style="stop-color:#8e2eef;stop-opacity:1"/><stop offset="1" style="stop-color:#ff4acc;stop-opacity:1"/></linearGradient><linearGradient shape-rendering="geometricPrecision" id="w" x1="0" y1="0" x2="1" y2="0" gradientUnits="userSpaceOnUse" gradientTransform="rotate(-129.741 58.993 22.57) scale(97.2508)"><stop offset="0" style="stop-color:#8e2eef;stop-opacity:1"/><stop offset="1" style="stop-color:#ff4acc;stop-opacity:1"/></linearGradient><linearGradient shape-rendering="geometricPrecision" id="x" x1="0" y1="0" x2="1" y2="0" gradientUnits="userSpaceOnUse" gradientTransform="rotate(-129.741 58.993 22.57) scale(97.2508)"><stop offset="0" style="stop-color:#8e2eef;stop-opacity:1"/><stop offset="1" style="stop-color:#ff4acc;stop-opacity:1"/></linearGradient><linearGradient shape-rendering="geometricPrecision" id="y" x1="0" y1="0" x2="1" y2="0" gradientUnits="userSpaceOnUse" gradientTransform="rotate(-129.741 58.993 22.57) scale(97.2508)"><stop offset="0" style="stop-color:#8e2eef;stop-opacity:1"/><stop offset="1" style="stop-color:#ff4acc;stop-opacity:1"/></linearGradient><linearGradient shape-rendering="geometricPrecision" id="z" x1="0" y1="0" x2="1" y2="0" gradientUnits="userSpaceOnUse" gradientTransform="rotate(-129.741 58.993 22.57) scale(97.2508)"><stop offset="0" style="stop-color:#8e2eef;stop-opacity:1"/><stop offset="1" style="stop-color:#ff4acc;stop-opacity:1"/></linearGradient><linearGradient shape-rendering="geometricPrecision" id="A" x1="0" y1="0" x2="1" y2="0" gradientUnits="userSpaceOnUse" gradientTransform="rotate(-129.741 58.993 22.57) scale(97.2508)"><stop offset="0" style="stop-color:#8e2eef;stop-opacity:1"/><stop offset="1" style="stop-color:#ff4acc;stop-opacity:1"/></linearGradient><linearGradient shape-rendering="geometricPrecision" id="B" x1="0" y1="0" x2="1" y2="0" gradientUnits="userSpaceOnUse" gradientTransform="rotate(-129.741 58.993 22.57) scale(97.2508)"><stop offset="0" style="stop-color:#8e2eef;stop-opacity:1"/><stop offset="1" style="stop-color:#ff4acc;stop-opacity:1"/></linearGradient><linearGradient shape-rendering="geometricPrecision" id="C" x1="0" y1="0" x2="1" y2="0" gradientUnits="userSpaceOnUse" gradientTransform="rotate(-129.741 58.993 22.57) scale(97.2508)"><stop offset="0" style="stop-color:#8e2eef;stop-opacity:1"/><stop offset="1" style="stop-color:#ff4acc;stop-opacity:1"/></linearGradient><linearGradient shape-rendering="geometricPrecision" id="D" x1="0" y1="0" x2="1" y2="0" gradientUnits="userSpaceOnUse" gradientTransform="rotate(-129.741 58.993 22.57) scale(97.2508)"><stop offset="0" style="stop-color:#8e2eef;stop-opacity:1"/><stop offset="1" style="stop-color:#ff4acc;stop-opacity:1"/></linearGradient><linearGradient shape-rendering="geometricPrecision" id="E" x1="0" y1="0" x2="1" y2="0" gradientUnits="userSpaceOnUse" gradientTransform="rotate(-129.741 58.993 22.57) scale(97.2508)"><stop offset="0" style="stop-color:#8e2eef;stop-opacity:1"/><stop offset="1" style="stop-color:#ff4acc;stop-opacity:1"/></linearGradient><linearGradient shape-rendering="geometricPrecision" id="F" x1="0" y1="0" x2="1" y2="0" gradientUnits="userSpaceOnUse" gradientTransform="rotate(-129.741 58.993 22.57) scale(97.2508)"><stop offset="0" style="stop-color:#8e2eef;stop-opacity:1"/><stop offset="1" style="stop-color:#ff4acc;stop-opacity:1"/></linearGradient></defs></svg>
