<svg clip-rule="evenodd" fill-rule="evenodd" height="100" stroke-linejoin="round" stroke-miterlimit="2" viewBox="0 0 100 100" width="100" xmlns="http://www.w3.org/2000/svg" xmlns:xlink="http://www.w3.org/1999/xlink"><linearGradient id="a" gradientTransform="matrix(-62.1743 -74.7802 74.7802 -62.1743 79.353 82.3604)" gradientUnits="userSpaceOnUse" shape-rendering="geometricPrecision" x1="0" x2="1" y1="0" y2="0"><stop offset="0" stop-color="#8e2eef"/><stop offset="1" stop-color="#ff4acc"/></linearGradient><g transform="scale(.471273 .172871)"><path d="m0 0h800v600h-800z" fill="none"/><g fill="url(#a)" fill-rule="nonzero" shape-rendering="geometricPrecision"><path d="m43.831 6.655c.644.131 1.289.282 1.934.455s1.279.364 1.903.573l1.917-5.713c-.742-.248-1.495-.476-2.26-.681s-1.531-.385-2.298-.54z" transform="matrix(2.12191 0 0 5.78465 18.939325 26.71418)"/><path d="m33.968 6.234c1.304-.151 2.625-.221 3.956-.206l.068-6.026c-1.588-.017-3.163.066-4.718.247z" transform="matrix(2.12191 0 0 5.78465 18.939325 26.71418)"/><path d="m53.097 10.093c1.16.653 2.269 1.374 3.323 2.157l3.594-4.836c-1.257-.934-2.579-1.794-3.963-2.573z" transform="matrix(2.12191 0 0 5.78465 18.939325 26.71418)"/><path d="m24.459 8.897c1.201-.55 2.437-1.026 3.701-1.423l-1.808-5.749c-1.505.473-2.976 1.04-4.404 1.695z" transform="matrix(2.12191 0 0 5.78465 18.939325 26.71418)"/><path d="m60.83 16.228c.896.976 1.729 2.006 2.493 3.083l4.914-3.488c-.91-1.281-1.9-2.508-2.967-3.67z" transform="matrix(2.12191 0 0 5.78465 18.939325 26.71418)"/><path d="m16.228 14.363c.976-.896 2.006-1.729 3.083-2.493l-3.488-4.914c-1.281.91-2.508 1.9-3.67 2.967z" transform="matrix(2.12191 0 0 5.78465 18.939325 26.71418)"/><path d="m66.295 24.459c.551 1.201 1.027 2.437 1.424 3.701l5.749-1.808c-.474-1.505-1.04-2.976-1.695-4.404z" transform="matrix(2.12191 0 0 5.78465 18.939325 26.71418)"/><path d="m10.093 22.096c.653-1.16 1.374-2.269 2.157-3.323l-4.836-3.594c-.934 1.256-1.794 2.579-2.573 3.963z" transform="matrix(2.12191 0 0 5.78465 18.939325 26.71418)"/><path d="m68.958 33.968c.152 1.304.222 2.625.207 3.956l6.025.068c.018-1.588-.065-3.163-.246-4.718z" transform="matrix(2.12191 0 0 5.78465 18.939325 26.71418)"/><path d="m7.11 29.427c.173-.644.364-1.279.573-1.902l-5.713-1.917c-.248.741-.476 1.495-.681 2.26s-.385 1.531-.54 2.298l5.906 1.196c.131-.644.282-1.29.455-1.935z" transform="matrix(2.12191 0 0 5.78465 18.939325 26.71418)"/><path d="m68.538 43.831c-.131.644-.282 1.289-.455 1.934l5.82 1.56c.205-.765.385-1.531.541-2.298z" transform="matrix(2.12191 0 0 5.78465 18.939325 26.71418)"/><path d="m6.234 41.225c-.151-1.304-.221-2.625-.206-3.957l-6.026-.067c-.017 1.588.066 3.163.247 4.718z" transform="matrix(2.12191 0 0 5.78465 18.939325 26.71418)"/><path d="m8.897 50.734c-.55-1.201-1.026-2.437-1.423-3.701l-5.749 1.807c.473 1.506 1.04 2.977 1.695 4.405z" transform="matrix(2.12191 0 0 5.78465 18.939325 26.71418)"/><path d="m14.363 58.965c-.896-.976-1.729-2.006-2.493-3.083l-4.914 3.488c.91 1.281 1.9 2.507 2.967 3.67z" transform="matrix(2.12191 0 0 5.78465 18.939325 26.71418)"/><path d="m22.096 65.1c-1.16-.653-2.269-1.374-3.323-2.158l-3.594 4.837c1.256.934 2.579 1.794 3.963 2.573z" transform="matrix(2.12191 0 0 5.78465 18.939325 26.71418)"/><path d="m29.427 68.083c-.644-.173-1.279-.364-1.902-.573l-1.917 5.712c.741.249 1.495.476 2.26.681z" transform="matrix(2.12191 0 0 5.78465 18.939325 26.71418)"/><path d="m57.154 48.845c-.821 0-1.633.042-2.433.124l.306 2.997c.698-.071 1.408-.108 2.127-.108.72 0 1.429.037 2.128.108l.306-2.997c-.8-.082-1.612-.124-2.434-.124z" transform="matrix(2.12191 0 0 5.78465 18.939325 26.71418)"/><path d="m67.963 51.463c-1.429-.742-2.95-1.341-4.54-1.777l-.798 2.905c1.385.38 2.708.901 3.95 1.546z" transform="matrix(2.12191 0 0 5.78465 18.939325 26.71418)"/><path d="m50.886 49.686c-1.591.436-3.111 1.035-4.54 1.777l1.388 2.674c1.242-.645 2.565-1.166 3.95-1.546z" transform="matrix(2.12191 0 0 5.78465 18.939325 26.71418)"/><path d="m74.817 56.903c-1.055-1.239-2.247-2.363-3.552-3.353l-1.821 2.4c1.134.86 2.166 1.835 3.079 2.906z" transform="matrix(2.12191 0 0 5.78465 18.939325 26.71418)"/><path d="m43.044 53.55c-1.306.99-2.497 2.114-3.552 3.353l2.294 1.953c.913-1.071 1.945-2.046 3.078-2.906z" transform="matrix(2.12191 0 0 5.78465 18.939325 26.71418)"/><path d="m79.054 64.585c-.487-1.578-1.152-3.081-1.971-4.487l-2.604 1.517c.707 1.212 1.278 2.504 1.696 3.859z" transform="matrix(2.12191 0 0 5.78465 18.939325 26.71418)"/><path d="m37.226 60.098c-.819 1.406-1.484 2.909-1.971 4.487l2.879.889c.418-1.355.989-2.647 1.695-3.859z" transform="matrix(2.12191 0 0 5.78465 18.939325 26.71418)"/><path d="m80 70.881c0-.828-.047-1.646-.14-2.452l-2.993.344c.079.691.12 1.395.12 2.108s-.041 1.416-.12 2.108l2.993.343c.093-.805.14-1.623.14-2.451z" transform="matrix(2.12191 0 0 5.78465 18.939325 26.71418)"/><path d="m34.449 68.429c-.093.806-.14 1.624-.14 2.452s.047 1.646.14 2.451l2.993-.343c-.079-.692-.12-1.395-.12-2.108s.041-1.417.12-2.108z" transform="matrix(2.12191 0 0 5.78465 18.939325 26.71418)"/><path d="m77.083 81.663c.819-1.406 1.484-2.909 1.971-4.487l-2.879-.888c-.418 1.354-.989 2.647-1.696 3.858z" transform="matrix(2.12191 0 0 5.78465 18.939325 26.71418)"/><path d="m35.255 77.176c.487 1.578 1.152 3.081 1.971 4.487l2.603-1.517c-.706-1.211-1.277-2.504-1.695-3.858z" transform="matrix(2.12191 0 0 5.78465 18.939325 26.71418)"/><path d="m71.265 88.212c1.305-.99 2.497-2.115 3.552-3.354l-2.294-1.953c-.913 1.072-1.945 2.047-3.079 2.906z" transform="matrix(2.12191 0 0 5.78465 18.939325 26.71418)"/><path d="m39.492 84.859c1.055 1.238 2.246 2.363 3.552 3.353l1.82-2.401c-1.133-.859-2.165-1.834-3.078-2.906z" transform="matrix(2.12191 0 0 5.78465 18.939325 26.71418)"/><path d="m46.346 90.299c1.429.741 2.949 1.34 4.54 1.777l.798-2.905c-1.385-.381-2.708-.902-3.95-1.547z" transform="matrix(2.12191 0 0 5.78465 18.939325 26.71418)"/><path d="m63.423 92.076c1.59-.437 3.111-1.036 4.54-1.777l-1.388-2.675c-1.242.645-2.565 1.166-3.95 1.547z" transform="matrix(2.12191 0 0 5.78465 18.939325 26.71418)"/><path d="m54.721 92.792c.8.082 1.612.124 2.433.124.822 0 1.634-.042 2.434-.124l-.306-2.997c-.699.071-1.408.108-2.128.108-.719 0-1.429-.037-2.127-.108z" transform="matrix(2.12191 0 0 5.78465 18.939325 26.71418)"/></g></g></svg>
