<svg width="100" height="100" xml:space="preserve" style="clip-rule:evenodd;fill-rule:evenodd;stroke-linejoin:round;stroke-miterlimit:2" xmlns="http://www.w3.org/2000/svg"><path style="fill:none" d="M0 0h800v600H0z" transform="scale(.47127 .17287)"/><path shape-rendering="geometricPrecision" d="M43.831 6.655a32.372 32.372 0 0 1 3.837 1.028l1.917-5.713A37.815 37.815 0 0 0 45.027.749z" style="fill:url(#a);fill-rule:nonzero" transform="matrix(1 0 0 1 8.926 4.618)"/><path shape-rendering="geometricPrecision" d="M33.968 6.234a31.32 31.32 0 0 1 3.956-.206l.068-6.026a37.34 37.34 0 0 0-4.718.247z" style="fill:url(#b);fill-rule:nonzero" transform="matrix(1 0 0 1 8.926 4.618)"/><path shape-rendering="geometricPrecision" d="M53.097 10.093a31.404 31.404 0 0 1 3.323 2.157l3.594-4.836a37.403 37.403 0 0 0-3.963-2.573z" style="fill:url(#c);fill-rule:nonzero" transform="matrix(1 0 0 1 8.926 4.618)"/><path shape-rendering="geometricPrecision" d="M24.459 8.897a31.713 31.713 0 0 1 3.701-1.423l-1.808-5.749a37.618 37.618 0 0 0-4.404 1.695z" style="fill:url(#d);fill-rule:nonzero" transform="matrix(1 0 0 1 8.926 4.618)"/><path shape-rendering="geometricPrecision" d="M60.83 16.228a31.57 31.57 0 0 1 2.493 3.083l4.914-3.488a37.74 37.74 0 0 0-2.967-3.67z" style="fill:url(#e);fill-rule:nonzero" transform="matrix(1 0 0 1 8.926 4.618)"/><path shape-rendering="geometricPrecision" d="M16.228 14.363a31.57 31.57 0 0 1 3.083-2.493l-3.488-4.914a37.74 37.74 0 0 0-3.67 2.967z" style="fill:url(#f);fill-rule:nonzero" transform="matrix(1 0 0 1 8.926 4.618)"/><path shape-rendering="geometricPrecision" d="M66.295 24.459a31.541 31.541 0 0 1 1.424 3.701l5.749-1.808a37.797 37.797 0 0 0-1.695-4.404z" style="fill:url(#g);fill-rule:nonzero" transform="matrix(1 0 0 1 8.926 4.618)"/><path shape-rendering="geometricPrecision" d="M10.093 22.096a31.404 31.404 0 0 1 2.157-3.323l-4.836-3.594a37.301 37.301 0 0 0-2.573 3.963z" style="fill:url(#h);fill-rule:nonzero" transform="matrix(1 0 0 1 8.926 4.618)"/><path shape-rendering="geometricPrecision" d="M68.958 33.968c.152 1.304.222 2.625.207 3.956l6.025.068a37.154 37.154 0 0 0-.246-4.718z" style="fill:url(#i);fill-rule:nonzero" transform="matrix(1 0 0 1 8.926 4.618)"/><path shape-rendering="geometricPrecision" d="M7.11 29.427c.173-.644.364-1.279.573-1.902L1.97 25.608a38.622 38.622 0 0 0-1.221 4.558l5.906 1.196c.131-.644.282-1.29.455-1.935z" style="fill:url(#j);fill-rule:nonzero" transform="matrix(1 0 0 1 8.926 4.618)"/><path shape-rendering="geometricPrecision" d="M68.538 43.831a32.372 32.372 0 0 1-.455 1.934l5.82 1.56a38.59 38.59 0 0 0 .541-2.298z" style="fill:url(#k);fill-rule:nonzero" transform="matrix(1 0 0 1 8.926 4.618)"/><path shape-rendering="geometricPrecision" d="M6.234 41.225a31.326 31.326 0 0 1-.206-3.957l-6.026-.067a37.34 37.34 0 0 0 .247 4.718z" style="fill:url(#l);fill-rule:nonzero" transform="matrix(1 0 0 1 8.926 4.618)"/><path shape-rendering="geometricPrecision" d="M8.897 50.734a31.713 31.713 0 0 1-1.423-3.701L1.725 48.84a37.565 37.565 0 0 0 1.695 4.405z" style="fill:url(#m);fill-rule:nonzero" transform="matrix(1 0 0 1 8.926 4.618)"/><path shape-rendering="geometricPrecision" d="M14.363 58.965a31.57 31.57 0 0 1-2.493-3.083L6.956 59.37a37.86 37.86 0 0 0 2.967 3.67z" style="fill:url(#n);fill-rule:nonzero" transform="matrix(1 0 0 1 8.926 4.618)"/><path shape-rendering="geometricPrecision" d="M22.096 65.1a31.255 31.255 0 0 1-3.323-2.158l-3.594 4.837a37.301 37.301 0 0 0 3.963 2.573z" style="fill:url(#o);fill-rule:nonzero" transform="matrix(1 0 0 1 8.926 4.618)"/><path shape-rendering="geometricPrecision" d="M29.427 68.083a32.462 32.462 0 0 1-1.902-.573l-1.917 5.712c.741.249 1.495.476 2.26.681z" style="fill:url(#p);fill-rule:nonzero" transform="matrix(1 0 0 1 8.926 4.618)"/><path shape-rendering="geometricPrecision" d="M57.154 48.845c-.821 0-1.633.042-2.433.124l.306 2.997a21.02 21.02 0 0 1 4.255 0l.306-2.997c-.8-.082-1.612-.124-2.434-.124z" style="fill:url(#q);fill-rule:nonzero" transform="matrix(1 0 0 1 8.926 4.618)"/><path shape-rendering="geometricPrecision" d="M67.963 51.463a23.12 23.12 0 0 0-4.54-1.777l-.798 2.905c1.385.38 2.708.901 3.95 1.546z" style="fill:url(#r);fill-rule:nonzero" transform="matrix(1 0 0 1 8.926 4.618)"/><path shape-rendering="geometricPrecision" d="M50.886 49.686a23.096 23.096 0 0 0-4.54 1.777l1.388 2.674a20.121 20.121 0 0 1 3.95-1.546z" style="fill:url(#s);fill-rule:nonzero" transform="matrix(1 0 0 1 8.926 4.618)"/><path shape-rendering="geometricPrecision" d="M74.817 56.903a22.617 22.617 0 0 0-3.552-3.353l-1.821 2.4a19.638 19.638 0 0 1 3.079 2.906z" style="fill:url(#t);fill-rule:nonzero" transform="matrix(1 0 0 1 8.926 4.618)"/><path shape-rendering="geometricPrecision" d="M43.044 53.55a22.573 22.573 0 0 0-3.552 3.353l2.294 1.953a19.676 19.676 0 0 1 3.078-2.906z" style="fill:url(#u);fill-rule:nonzero" transform="matrix(1 0 0 1 8.926 4.618)"/><path shape-rendering="geometricPrecision" d="M79.054 64.585a21.525 21.525 0 0 0-1.971-4.487l-2.604 1.517a18.448 18.448 0 0 1 1.696 3.859z" style="fill:url(#v);fill-rule:nonzero" transform="matrix(1 0 0 1 8.926 4.618)"/><path shape-rendering="geometricPrecision" d="M37.226 60.098a21.525 21.525 0 0 0-1.971 4.487l2.879.889a18.496 18.496 0 0 1 1.695-3.859z" style="fill:url(#w);fill-rule:nonzero" transform="matrix(1 0 0 1 8.926 4.618)"/><path shape-rendering="geometricPrecision" d="M80 70.881c0-.828-.047-1.646-.14-2.452l-2.993.344a18.561 18.561 0 0 1 0 4.216l2.993.343c.093-.805.14-1.623.14-2.451z" style="fill:url(#x);fill-rule:nonzero" transform="matrix(1 0 0 1 8.926 4.618)"/><path shape-rendering="geometricPrecision" d="M34.449 68.429a21.383 21.383 0 0 0 0 4.903l2.993-.343a18.574 18.574 0 0 1 0-4.216z" style="fill:url(#y);fill-rule:nonzero" transform="matrix(1 0 0 1 8.926 4.618)"/><path shape-rendering="geometricPrecision" d="M77.083 81.663a21.525 21.525 0 0 0 1.971-4.487l-2.879-.888a18.44 18.44 0 0 1-1.696 3.858z" style="fill:url(#z);fill-rule:nonzero" transform="matrix(1 0 0 1 8.926 4.618)"/><path shape-rendering="geometricPrecision" d="M35.255 77.176a21.525 21.525 0 0 0 1.971 4.487l2.603-1.517a18.488 18.488 0 0 1-1.695-3.858z" style="fill:url(#A);fill-rule:nonzero" transform="matrix(1 0 0 1 8.926 4.618)"/><path shape-rendering="geometricPrecision" d="M71.265 88.212a22.623 22.623 0 0 0 3.552-3.354l-2.294-1.953a19.546 19.546 0 0 1-3.079 2.906z" style="fill:url(#B);fill-rule:nonzero" transform="matrix(1 0 0 1 8.926 4.618)"/><path shape-rendering="geometricPrecision" d="M39.492 84.859a22.62 22.62 0 0 0 3.552 3.353l1.82-2.401a19.583 19.583 0 0 1-3.078-2.906z" style="fill:url(#C);fill-rule:nonzero" transform="matrix(1 0 0 1 8.926 4.618)"/><path shape-rendering="geometricPrecision" d="M46.346 90.299a23.221 23.221 0 0 0 4.54 1.777l.798-2.905a20.187 20.187 0 0 1-3.95-1.547z" style="fill:url(#D);fill-rule:nonzero" transform="matrix(1 0 0 1 8.926 4.618)"/><path shape-rendering="geometricPrecision" d="M63.423 92.076a23.246 23.246 0 0 0 4.54-1.777l-1.388-2.675a20.187 20.187 0 0 1-3.95 1.547z" style="fill:url(#E);fill-rule:nonzero" transform="matrix(1 0 0 1 8.926 4.618)"/><path shape-rendering="geometricPrecision" d="M54.721 92.792a23.86 23.86 0 0 0 4.867 0l-.306-2.997a21.04 21.04 0 0 1-4.255 0z" style="fill:url(#F);fill-rule:nonzero" transform="matrix(1 0 0 1 8.926 4.618)"/><defs><linearGradient shape-rendering="geometricPrecision" id="q" x1="0" y1="0" x2="1" y2="0" gradientUnits="userSpaceOnUse" gradientTransform="rotate(-129.741 58.993 22.57) scale(97.2508)"><stop offset="0" style="stop-color:#8e2eef;stop-opacity:1"/><stop offset="1" style="stop-color:#ff4acc;stop-opacity:1"/></linearGradient><linearGradient shape-rendering="geometricPrecision" id="a" x1="0" y1="0" x2="1" y2="0" gradientUnits="userSpaceOnUse" gradientTransform="rotate(-129.741 58.993 22.57) scale(97.2508)"><stop offset="0" style="stop-color:#8e2eef;stop-opacity:1"/><stop offset="1" style="stop-color:#ff4acc;stop-opacity:1"/></linearGradient><linearGradient shape-rendering="geometricPrecision" id="c" x1="0" y1="0" x2="1" y2="0" gradientUnits="userSpaceOnUse" gradientTransform="rotate(-129.741 58.993 22.57) scale(97.2508)"><stop offset="0" style="stop-color:#8e2eef;stop-opacity:1"/><stop offset="1" style="stop-color:#ff4acc;stop-opacity:1"/></linearGradient><linearGradient shape-rendering="geometricPrecision" id="d" x1="0" y1="0" x2="1" y2="0" gradientUnits="userSpaceOnUse" gradientTransform="rotate(-129.741 58.993 22.57) scale(97.2508)"><stop offset="0" style="stop-color:#8e2eef;stop-opacity:1"/><stop offset="1" style="stop-color:#ff4acc;stop-opacity:1"/></linearGradient><linearGradient shape-rendering="geometricPrecision" id="e" x1="0" y1="0" x2="1" y2="0" gradientUnits="userSpaceOnUse" gradientTransform="rotate(-129.741 58.993 22.57) scale(97.2508)"><stop offset="0" style="stop-color:#8e2eef;stop-opacity:1"/><stop offset="1" style="stop-color:#ff4acc;stop-opacity:1"/></linearGradient><linearGradient shape-rendering="geometricPrecision" id="f" x1="0" y1="0" x2="1" y2="0" gradientUnits="userSpaceOnUse" gradientTransform="rotate(-129.741 58.993 22.57) scale(97.2508)"><stop offset="0" style="stop-color:#8e2eef;stop-opacity:1"/><stop offset="1" style="stop-color:#ff4acc;stop-opacity:1"/></linearGradient><linearGradient shape-rendering="geometricPrecision" id="g" x1="0" y1="0" x2="1" y2="0" gradientUnits="userSpaceOnUse" gradientTransform="rotate(-129.741 58.993 22.57) scale(97.2508)"><stop offset="0" style="stop-color:#8e2eef;stop-opacity:1"/><stop offset="1" style="stop-color:#ff4acc;stop-opacity:1"/></linearGradient><linearGradient shape-rendering="geometricPrecision" id="h" x1="0" y1="0" x2="1" y2="0" gradientUnits="userSpaceOnUse" gradientTransform="rotate(-129.741 58.993 22.57) scale(97.2508)"><stop offset="0" style="stop-color:#8e2eef;stop-opacity:1"/><stop offset="1" style="stop-color:#ff4acc;stop-opacity:1"/></linearGradient><linearGradient shape-rendering="geometricPrecision" id="i" x1="0" y1="0" x2="1" y2="0" gradientUnits="userSpaceOnUse" gradientTransform="rotate(-129.741 58.993 22.57) scale(97.2508)"><stop offset="0" style="stop-color:#8e2eef;stop-opacity:1"/><stop offset="1" style="stop-color:#ff4acc;stop-opacity:1"/></linearGradient><linearGradient shape-rendering="geometricPrecision" id="j" x1="0" y1="0" x2="1" y2="0" gradientUnits="userSpaceOnUse" gradientTransform="rotate(-129.741 58.993 22.57) scale(97.2508)"><stop offset="0" style="stop-color:#8e2eef;stop-opacity:1"/><stop offset="1" style="stop-color:#ff4acc;stop-opacity:1"/></linearGradient><linearGradient shape-rendering="geometricPrecision" id="k" x1="0" y1="0" x2="1" y2="0" gradientUnits="userSpaceOnUse" gradientTransform="rotate(-129.741 58.993 22.57) scale(97.2508)"><stop offset="0" style="stop-color:#8e2eef;stop-opacity:1"/><stop offset="1" style="stop-color:#ff4acc;stop-opacity:1"/></linearGradient><linearGradient shape-rendering="geometricPrecision" id="l" x1="0" y1="0" x2="1" y2="0" gradientUnits="userSpaceOnUse" gradientTransform="rotate(-129.741 58.993 22.57) scale(97.2508)"><stop offset="0" style="stop-color:#8e2eef;stop-opacity:1"/><stop offset="1" style="stop-color:#ff4acc;stop-opacity:1"/></linearGradient><linearGradient shape-rendering="geometricPrecision" id="m" x1="0" y1="0" x2="1" y2="0" gradientUnits="userSpaceOnUse" gradientTransform="rotate(-129.741 58.993 22.57) scale(97.2508)"><stop offset="0" style="stop-color:#8e2eef;stop-opacity:1"/><stop offset="1" style="stop-color:#ff4acc;stop-opacity:1"/></linearGradient><linearGradient shape-rendering="geometricPrecision" id="n" x1="0" y1="0" x2="1" y2="0" gradientUnits="userSpaceOnUse" gradientTransform="rotate(-129.741 58.993 22.57) scale(97.2508)"><stop offset="0" style="stop-color:#8e2eef;stop-opacity:1"/><stop offset="1" style="stop-color:#ff4acc;stop-opacity:1"/></linearGradient><linearGradient shape-rendering="geometricPrecision" id="o" x1="0" y1="0" x2="1" y2="0" gradientUnits="userSpaceOnUse" gradientTransform="rotate(-129.741 58.993 22.57) scale(97.2508)"><stop offset="0" style="stop-color:#8e2eef;stop-opacity:1"/><stop offset="1" style="stop-color:#ff4acc;stop-opacity:1"/></linearGradient><linearGradient shape-rendering="geometricPrecision" id="p" x1="0" y1="0" x2="1" y2="0" gradientUnits="userSpaceOnUse" gradientTransform="rotate(-129.741 58.993 22.57) scale(97.2508)"><stop offset="0" style="stop-color:#8e2eef;stop-opacity:1"/><stop offset="1" style="stop-color:#ff4acc;stop-opacity:1"/></linearGradient><linearGradient shape-rendering="geometricPrecision" id="b" x1="0" y1="0" x2="1" y2="0" gradientUnits="userSpaceOnUse" gradientTransform="rotate(-129.741 58.993 22.57) scale(97.2508)"><stop offset="0" style="stop-color:#8e2eef;stop-opacity:1"/><stop offset="1" style="stop-color:#ff4acc;stop-opacity:1"/></linearGradient><linearGradient shape-rendering="geometricPrecision" id="r" x1="0" y1="0" x2="1" y2="0" gradientUnits="userSpaceOnUse" gradientTransform="rotate(-129.741 58.993 22.57) scale(97.2508)"><stop offset="0" style="stop-color:#8e2eef;stop-opacity:1"/><stop offset="1" style="stop-color:#ff4acc;stop-opacity:1"/></linearGradient><linearGradient shape-rendering="geometricPrecision" id="s" x1="0" y1="0" x2="1" y2="0" gradientUnits="userSpaceOnUse" gradientTransform="rotate(-129.741 58.993 22.57) scale(97.2508)"><stop offset="0" style="stop-color:#8e2eef;stop-opacity:1"/><stop offset="1" style="stop-color:#ff4acc;stop-opacity:1"/></linearGradient><linearGradient shape-rendering="geometricPrecision" id="t" x1="0" y1="0" x2="1" y2="0" gradientUnits="userSpaceOnUse" gradientTransform="rotate(-129.741 58.993 22.57) scale(97.2508)"><stop offset="0" style="stop-color:#8e2eef;stop-opacity:1"/><stop offset="1" style="stop-color:#ff4acc;stop-opacity:1"/></linearGradient><linearGradient shape-rendering="geometricPrecision" id="u" x1="0" y1="0" x2="1" y2="0" gradientUnits="userSpaceOnUse" gradientTransform="rotate(-129.741 58.993 22.57) scale(97.2508)"><stop offset="0" style="stop-color:#8e2eef;stop-opacity:1"/><stop offset="1" style="stop-color:#ff4acc;stop-opacity:1"/></linearGradient><linearGradient shape-rendering="geometricPrecision" id="v" x1="0" y1="0" x2="1" y2="0" gradientUnits="userSpaceOnUse" gradientTransform="rotate(-129.741 58.993 22.57) scale(97.2508)"><stop offset="0" style="stop-color:#8e2eef;stop-opacity:1"/><stop offset="1" style="stop-color:#ff4acc;stop-opacity:1"/></linearGradient><linearGradient shape-rendering="geometricPrecision" id="w" x1="0" y1="0" x2="1" y2="0" gradientUnits="userSpaceOnUse" gradientTransform="rotate(-129.741 58.993 22.57) scale(97.2508)"><stop offset="0" style="stop-color:#8e2eef;stop-opacity:1"/><stop offset="1" style="stop-color:#ff4acc;stop-opacity:1"/></linearGradient><linearGradient shape-rendering="geometricPrecision" id="x" x1="0" y1="0" x2="1" y2="0" gradientUnits="userSpaceOnUse" gradientTransform="rotate(-129.741 58.993 22.57) scale(97.2508)"><stop offset="0" style="stop-color:#8e2eef;stop-opacity:1"/><stop offset="1" style="stop-color:#ff4acc;stop-opacity:1"/></linearGradient><linearGradient shape-rendering="geometricPrecision" id="y" x1="0" y1="0" x2="1" y2="0" gradientUnits="userSpaceOnUse" gradientTransform="rotate(-129.741 58.993 22.57) scale(97.2508)"><stop offset="0" style="stop-color:#8e2eef;stop-opacity:1"/><stop offset="1" style="stop-color:#ff4acc;stop-opacity:1"/></linearGradient><linearGradient shape-rendering="geometricPrecision" id="z" x1="0" y1="0" x2="1" y2="0" gradientUnits="userSpaceOnUse" gradientTransform="rotate(-129.741 58.993 22.57) scale(97.2508)"><stop offset="0" style="stop-color:#8e2eef;stop-opacity:1"/><stop offset="1" style="stop-color:#ff4acc;stop-opacity:1"/></linearGradient><linearGradient shape-rendering="geometricPrecision" id="A" x1="0" y1="0" x2="1" y2="0" gradientUnits="userSpaceOnUse" gradientTransform="rotate(-129.741 58.993 22.57) scale(97.2508)"><stop offset="0" style="stop-color:#8e2eef;stop-opacity:1"/><stop offset="1" style="stop-color:#ff4acc;stop-opacity:1"/></linearGradient><linearGradient shape-rendering="geometricPrecision" id="B" x1="0" y1="0" x2="1" y2="0" gradientUnits="userSpaceOnUse" gradientTransform="rotate(-129.741 58.993 22.57) scale(97.2508)"><stop offset="0" style="stop-color:#8e2eef;stop-opacity:1"/><stop offset="1" style="stop-color:#ff4acc;stop-opacity:1"/></linearGradient><linearGradient shape-rendering="geometricPrecision" id="C" x1="0" y1="0" x2="1" y2="0" gradientUnits="userSpaceOnUse" gradientTransform="rotate(-129.741 58.993 22.57) scale(97.2508)"><stop offset="0" style="stop-color:#8e2eef;stop-opacity:1"/><stop offset="1" style="stop-color:#ff4acc;stop-opacity:1"/></linearGradient><linearGradient shape-rendering="geometricPrecision" id="D" x1="0" y1="0" x2="1" y2="0" gradientUnits="userSpaceOnUse" gradientTransform="rotate(-129.741 58.993 22.57) scale(97.2508)"><stop offset="0" style="stop-color:#8e2eef;stop-opacity:1"/><stop offset="1" style="stop-color:#ff4acc;stop-opacity:1"/></linearGradient><linearGradient shape-rendering="geometricPrecision" id="E" x1="0" y1="0" x2="1" y2="0" gradientUnits="userSpaceOnUse" gradientTransform="rotate(-129.741 58.993 22.57) scale(97.2508)"><stop offset="0" style="stop-color:#8e2eef;stop-opacity:1"/><stop offset="1" style="stop-color:#ff4acc;stop-opacity:1"/></linearGradient><linearGradient shape-rendering="geometricPrecision" id="F" x1="0" y1="0" x2="1" y2="0" gradientUnits="userSpaceOnUse" gradientTransform="rotate(-129.741 58.993 22.57) scale(97.2508)"><stop offset="0" style="stop-color:#8e2eef;stop-opacity:1"/><stop offset="1" style="stop-color:#ff4acc;stop-opacity:1"/></linearGradient></defs></svg>
